<svg width="144" height="137" viewBox="0 0 144 137" fill="none" xmlns="http://www.w3.org/2000/svg">
<g id="logo">
<rect id="border-circle" x="2.5" y="2.5" width="132" height="132" rx="66" stroke="#479EEF" stroke-width="5"/>
<circle id="circle-fill" cx="136.5" cy="19.5" r="7.5" fill="#6947EF"/>
<g id="txt">
<path id="L" d="M62.12 105V48.2H67.72V100.04H100.52V105H62.12Z" fill="white"/>
<path id="U" d="M65.24 82.4C60.76 82.4 56.9733 81.6 53.88 80C50.7867 78.4 48.3333 76.2667 46.52 73.6C44.7067 70.88 43.3733 67.8133 42.52 64.4C41.72 60.9867 41.32 57.4667 41.32 53.84V25.2H46.84V53.84C46.84 56.7733 47.1333 59.6533 47.72 62.48C48.36 65.3067 49.3733 67.84 50.76 70.08C52.1467 72.32 54.0133 74.1067 56.36 75.44C58.7067 76.72 61.64 77.36 65.16 77.36C68.7867 77.36 71.7733 76.6933 74.12 75.36C76.52 73.9733 78.3867 72.16 79.72 69.92C81.1067 67.68 82.0933 65.1733 82.68 62.4C83.2667 59.5733 83.56 56.72 83.56 53.84V25.2H89.16V53.84C89.16 57.6267 88.7333 61.2533 87.88 64.72C87.0267 68.1867 85.64 71.2267 83.72 73.84C81.8533 76.4533 79.4 78.5333 76.36 80.08C73.32 81.6267 69.6133 82.4 65.24 82.4Z" fill="white"/>
</g>
</g>
</svg>
